<mxfile host="app.diagrams.net" modified="2024-01-22T10:49:47.967Z" agent="Mozilla/5.0 (Macintosh; Intel Mac OS X 10_15_7) AppleWebKit/537.36 (KHTML, like Gecko) Chrome/120.0.0.0 Safari/537.36" version="22.1.21" etag="XgASSSIaW3ncRzyWHYgA" type="github">
  <diagram name="Page-1" id="H0DkdIKF6iLqeC45kctY">
    <mxGraphModel>
      <root>
        <mxCell id="0" />
        <mxCell id="1" parent="0" />
      </root>
    </mxGraphModel>
  </diagram>
</mxfile>
